<svg width="172" height="37" viewBox="0 0 172 37" fill="none" xmlns="http://www.w3.org/2000/svg">
<path d="M12.6871 36.5976C10.4099 36.5976 8.36048 36.3211 6.53874 35.768C4.71699 35.1825 2.97657 34.174 1.31748 32.7426C0.894575 32.3848 0.569263 31.9782 0.341544 31.5227C0.113826 31.0673 -3.29734e-05 30.6118 -3.29734e-05 30.1564C-3.29734e-05 29.4082 0.260217 28.7576 0.780715 28.2045C1.33375 27.619 2.0169 27.3262 2.83018 27.3262C3.44827 27.3262 4.0013 27.5214 4.48927 27.9118C5.72546 28.9202 6.94538 29.6847 8.14903 30.2052C9.38521 30.7257 10.8979 30.986 12.6871 30.986C13.8908 30.986 14.9968 30.807 16.0053 30.4492C17.0138 30.0588 17.8271 29.5546 18.4452 28.9365C19.0632 28.2859 19.3723 27.5539 19.3723 26.7406C19.3723 25.7647 19.0795 24.9352 18.4939 24.252C17.9084 23.5688 17.0138 22.9996 15.8101 22.5441C14.6065 22.0561 13.0775 21.682 11.2232 21.4218C9.46654 21.1615 7.92131 20.7712 6.58753 20.2507C5.25375 19.6976 4.13143 19.0145 3.22055 18.2012C2.34221 17.3554 1.67532 16.3795 1.21989 15.2734C0.76445 14.1348 0.536732 12.8661 0.536732 11.4672C0.536732 9.35272 1.0735 7.54723 2.14703 6.0508C3.25309 4.55437 4.73325 3.41577 6.58753 2.63503C8.44181 1.85428 10.4913 1.4639 12.7359 1.4639C14.8505 1.4639 16.8023 1.78922 18.5915 2.43984C20.4133 3.05793 21.8935 3.85495 23.032 4.83088C23.9755 5.5791 24.4472 6.44118 24.4472 7.41711C24.4472 8.1328 24.1706 8.78342 23.6176 9.36898C23.0646 9.95454 22.414 10.2473 21.6657 10.2473C21.1778 10.2473 20.7386 10.1009 20.3482 9.80815C19.8277 9.35272 19.1283 8.92981 18.25 8.53944C17.3716 8.11653 16.4445 7.77496 15.4685 7.51471C14.4926 7.22192 13.5817 7.07553 12.7359 7.07553C11.3371 7.07553 10.1497 7.25446 9.17376 7.6123C8.23036 7.97014 7.51467 8.45811 7.0267 9.0762C6.53874 9.69429 6.29475 10.41 6.29475 11.2233C6.29475 12.1992 6.57127 13.0125 7.1243 13.6631C7.70986 14.2812 8.5394 14.7854 9.61293 15.1758C10.6865 15.5336 11.9714 15.859 13.4679 16.1517C15.4198 16.5096 17.1276 16.9325 18.5915 17.4205C20.088 17.9084 21.3242 18.5428 22.3001 19.3235C23.276 20.0717 24.008 21.0314 24.496 22.2025C24.9839 23.3411 25.2279 24.74 25.2279 26.3991C25.2279 28.5136 24.6423 30.3353 23.4712 31.8643C22.3001 33.3933 20.7549 34.5644 18.8355 35.3777C16.9487 36.1909 14.8993 36.5976 12.6871 36.5976ZM31.7998 36.1096C30.954 36.1096 30.2546 35.8331 29.7016 35.2801C29.1485 34.6945 28.872 33.9788 28.872 33.133V2.9766C28.872 2.13079 29.1485 1.43137 29.7016 0.878341C30.2546 0.292782 30.954 1.74716e-06 31.7998 1.74716e-06C32.6456 1.74716e-06 33.3451 0.292782 33.8981 0.878341C34.4511 1.43137 34.7276 2.13079 34.7276 2.9766V33.133C34.7276 33.9788 34.4511 34.6945 33.8981 35.2801C33.3451 35.8331 32.6456 36.1096 31.7998 36.1096ZM47.3172 10.0033C48.0654 10.0033 48.7161 10.3124 49.2691 10.9305C49.8221 11.5486 50.0986 12.1504 50.0986 12.736C50.0986 13.5167 49.7083 14.2487 48.9275 14.9318L34.2397 28.4485L33.9957 21.7146L45.1702 10.9305C45.7882 10.3124 46.5039 10.0033 47.3172 10.0033ZM48.0492 36.0608C47.2034 36.0608 46.4877 35.7355 45.9021 35.0849L36.8747 25.5207L41.3152 21.4218L50.0986 30.986C50.7167 31.6366 51.0258 32.3685 51.0258 33.1818C51.0258 34.0276 50.6842 34.727 50.001 35.2801C49.3504 35.8006 48.6998 36.0608 48.0492 36.0608ZM59.728 33.133C59.728 33.9788 59.4515 34.6945 58.8984 35.2801C58.3454 35.8331 57.646 36.1096 56.8002 36.1096C55.9544 36.1096 55.2549 35.8331 54.7019 35.2801C54.1489 34.6945 53.8724 33.9788 53.8724 33.133V12.9799C53.8724 12.1341 54.1489 11.4347 54.7019 10.8817C55.2549 10.2961 55.9544 10.0033 56.8002 10.0033C57.646 10.0033 58.3454 10.2961 58.8984 10.8817C59.4515 11.4347 59.728 12.1341 59.728 12.9799V33.133ZM56.7514 6.83155C55.6453 6.83155 54.8646 6.65263 54.4091 6.29479C53.9537 5.93694 53.726 5.30258 53.726 4.39171V3.46457C53.726 2.52117 53.97 1.88681 54.4579 1.5615C54.9784 1.20365 55.7592 1.02473 56.8002 1.02473C57.9388 1.02473 58.7358 1.20365 59.1912 1.5615C59.6467 1.91934 59.8744 2.5537 59.8744 3.46457V4.39171C59.8744 5.33511 59.6304 5.98574 59.1424 6.34358C58.6545 6.66889 57.8574 6.83155 56.7514 6.83155ZM70.1377 33.133C70.1377 33.9788 69.8449 34.6945 69.2594 35.2801C68.7063 35.8331 68.0069 36.1096 67.1611 36.1096C66.3478 36.1096 65.6647 35.8331 65.1116 35.2801C64.5586 34.6945 64.2821 33.9788 64.2821 33.133V2.9766C64.2821 2.13079 64.5586 1.43137 65.1116 0.878341C65.6972 0.292782 66.4129 1.74716e-06 67.2587 1.74716e-06C68.1045 1.74716e-06 68.7877 0.292782 69.3082 0.878341C69.8612 1.43137 70.1377 2.13079 70.1377 2.9766V33.133ZM81.3381 33.133C81.3381 33.9788 81.0453 34.6945 80.4598 35.2801C79.9067 35.8331 79.2073 36.1096 78.3615 36.1096C77.5482 36.1096 76.8651 35.8331 76.312 35.2801C75.759 34.6945 75.4825 33.9788 75.4825 33.133V2.9766C75.4825 2.13079 75.759 1.43137 76.312 0.878341C76.8976 0.292782 77.6133 1.74716e-06 78.4591 1.74716e-06C79.3049 1.74716e-06 79.9881 0.292782 80.5086 0.878341C81.0616 1.43137 81.3381 2.13079 81.3381 2.9766V33.133ZM111.044 23.0809C111.044 25.7484 110.442 28.1069 109.238 30.1564C108.067 32.1733 106.473 33.7511 104.456 34.8897C102.472 36.0283 100.244 36.5976 97.7712 36.5976C95.2988 36.5976 93.0542 36.0283 91.0372 34.8897C89.0528 33.7511 87.4588 32.1733 86.2551 30.1564C85.084 28.1069 84.4985 25.7484 84.4985 23.0809C84.4985 20.4133 85.084 18.0711 86.2551 16.0541C87.4588 14.0047 89.0528 12.4106 91.0372 11.2721C93.0542 10.1009 95.2988 9.51537 97.7712 9.51537C100.244 9.51537 102.472 10.1009 104.456 11.2721C106.473 12.4106 108.067 14.0047 109.238 16.0541C110.442 18.0711 111.044 20.4133 111.044 23.0809ZM105.188 23.0809C105.188 21.4218 104.847 19.9904 104.164 18.7868C103.513 17.5506 102.618 16.5909 101.48 15.9078C100.374 15.2246 99.1375 14.883 97.7712 14.883C96.4049 14.883 95.1524 15.2246 94.0138 15.9078C92.9078 16.5909 92.0132 17.5506 91.33 18.7868C90.6794 19.9904 90.3541 21.4218 90.3541 23.0809C90.3541 24.7074 90.6794 26.1388 91.33 27.375C92.0132 28.5786 92.9078 29.5221 94.0138 30.2052C95.1524 30.8884 96.4049 31.2299 97.7712 31.2299C99.1375 31.2299 100.374 30.8884 101.48 30.2052C102.618 29.5221 103.513 28.5786 104.164 27.375C104.847 26.1388 105.188 24.7074 105.188 23.0809ZM117.145 36.1096C116.299 36.1096 115.599 35.8331 115.046 35.2801C114.493 34.6945 114.217 33.9788 114.217 33.133V12.9799C114.217 12.1341 114.493 11.4347 115.046 10.8817C115.599 10.2961 116.299 10.0033 117.145 10.0033C117.99 10.0033 118.69 10.2961 119.243 10.8817C119.796 11.4347 120.072 12.1341 120.072 12.9799V17.5668L119.731 14.2975C120.089 13.5167 120.544 12.8336 121.097 12.248C121.683 11.6299 122.333 11.1257 123.049 10.7353C123.765 10.3124 124.529 10.0033 125.343 9.80815C126.156 9.61297 126.969 9.51537 127.782 9.51537C128.758 9.51537 129.572 9.79189 130.222 10.3449C130.905 10.8979 131.247 11.5486 131.247 12.2968C131.247 13.3703 130.97 14.1511 130.417 14.639C129.864 15.0945 129.263 15.3222 128.612 15.3222C127.994 15.3222 127.424 15.2083 126.904 14.9806C126.416 14.7529 125.847 14.639 125.196 14.639C124.611 14.639 124.009 14.7854 123.391 15.0782C122.805 15.3385 122.252 15.7614 121.732 16.3469C121.244 16.9325 120.837 17.6644 120.512 18.5428C120.219 19.3886 120.072 20.3971 120.072 21.5682V33.133C120.072 33.9788 119.796 34.6945 119.243 35.2801C118.69 35.8331 117.99 36.1096 117.145 36.1096ZM154.224 9.51537C155.07 9.51537 155.769 9.79189 156.322 10.3449C156.875 10.8979 157.152 11.6136 157.152 12.492V33.133C157.152 33.9788 156.875 34.6945 156.322 35.2801C155.769 35.8331 155.07 36.1096 154.224 36.1096C153.378 36.1096 152.679 35.8331 152.126 35.2801C151.573 34.6945 151.296 33.9788 151.296 33.133V30.742L152.37 31.1811C152.37 31.604 152.142 32.1245 151.687 32.7426C151.231 33.3282 150.613 33.9138 149.832 34.4993C149.052 35.0849 148.125 35.5891 147.051 36.012C146.01 36.4024 144.871 36.5976 143.635 36.5976C141.391 36.5976 139.357 36.0283 137.536 34.8897C135.714 33.7186 134.266 32.1245 133.193 30.1076C132.152 28.0582 131.631 25.7159 131.631 23.0809C131.631 20.4133 132.152 18.0711 133.193 16.0541C134.266 14.0047 135.698 12.4106 137.487 11.2721C139.276 10.1009 141.26 9.51537 143.44 9.51537C144.839 9.51537 146.124 9.72683 147.295 10.1497C148.466 10.5726 149.475 11.1094 150.32 11.76C151.199 12.4106 151.866 13.0775 152.321 13.7607C152.809 14.4113 153.053 14.9643 153.053 15.4198L151.296 16.0541V12.492C151.296 11.6462 151.573 10.9467 152.126 10.3937C152.679 9.80815 153.378 9.51537 154.224 9.51537ZM144.367 31.2299C145.799 31.2299 147.051 30.8721 148.125 30.1564C149.198 29.4407 150.028 28.4648 150.613 27.2286C151.231 25.9924 151.54 24.6098 151.54 23.0809C151.54 21.5194 151.231 20.1205 150.613 18.8844C150.028 17.6482 149.198 16.6722 148.125 15.9565C147.051 15.2409 145.799 14.883 144.367 14.883C142.968 14.883 141.732 15.2409 140.659 15.9565C139.585 16.6722 138.739 17.6482 138.121 18.8844C137.536 20.1205 137.243 21.5194 137.243 23.0809C137.243 24.6098 137.536 25.9924 138.121 27.2286C138.739 28.4648 139.585 29.4407 140.659 30.1564C141.732 30.8721 142.968 31.2299 144.367 31.2299Z" fill="#272829"/>
<path d="M166.458 36.0411C165.133 36.0411 164.104 35.6983 163.373 35.0127C162.688 34.2814 162.345 33.253 162.345 31.9276V30.7621C162.345 29.4366 162.688 28.4311 163.373 27.7455C164.104 27.0142 165.133 26.6486 166.458 26.6486H167.35C168.675 26.6486 169.681 27.0142 170.366 27.7455C171.097 28.4311 171.463 29.4366 171.463 30.7621V31.9276C171.463 33.253 171.097 34.2814 170.366 35.0127C169.681 35.6983 168.675 36.0411 167.35 36.0411H166.458Z" fill="#F0D7FF"/>
</svg>
